<?xml version="1.0" encoding="utf-8" ?>	<!-- Generator: Assembly 1.8 - http://assemblyapp.co -->	<svg version="1.1" xmlns="http://www.w3.org/2000/svg" xmlns:xlink="http://www.w3.org/1999/xlink" width="2048.00" height="2048.00" viewBox="0 0 2048.0 2048.0">		<g id="document" transform="matrix(1,0,0,1,1024.0,1024.0)">			<path d="M1157.13,1145.91 L-1134.68,1145.91 L-1134.68,-1145.91 L1157.13,-1145.91 L1157.13,1145.91 Z " fill="#e63e2b" fill-opacity="1.00" />			<path d="M-805.11,504.308 L-552.145,-107.024 L-484.039,-47.0255 L-378.637,-189.724 L-214.858,-520.524 L18.6481,-124.861 L172.697,-8.10785 L221.344,-194.588 L479.174,-424.851 L591.062,-74.5922 L699.708,-107.024 L805.11,520.524 L639.709,2.34834e-12 L550.523,34.053 L466.201,-327.557 L271.613,-173.508 L222.966,103.78 L0.810785,-38.9177 L-198.642,-384.312 L-312.152,-144.32 L-451.607,42.1608 L-521.335,2.34834e-12 L-805.11,504.308 Z " fill="#f7f9fe" fill-opacity="1.00" />		</g>	</svg>